<svg width="363" height="512" viewBox="0 0 363 512" fill="none" xmlns="http://www.w3.org/2000/svg">
<path d="M33.8 0H56.8V22.8H78V0H101V69H78V46H57V69H33.8M131.4 23H111.1V0H174.8V23H154.4V69H131.4M184.9 0H209L223.8 24.3L238.6 0H262.7V69H239.7V34.8L223.6 59.6L207.5 34.8V69H184.9M274.1 0H297.1V46.2H329.7V69H274.1" fill="black"/>
<path d="M33 471L0 100.6H362.8L329.8 470.8L181.1 512" fill="#E44D26"/>
<path d="M181.4 480.5V131H329.7L301.4 447" fill="#F16529"/>
<path d="M67.4 176.3H181.4V221.7H117.2L121.4 268.2H181.4V313.5H79.8M81.8 336.3H127.4L130.6 372.6L181.4 386.2V433.6L88.2 407.6" fill="#EBEBEB"/>
<path d="M295 176.3H181.2V221.7H290.8M286.7 268.2H181.2V313.6H237.2L231.9 372.6L181.2 386.2V433.4L274.2 407.6" fill="white"/>
</svg>
