<svg width="23" height="21" viewBox="0 0 23 21" fill="none" xmlns="http://www.w3.org/2000/svg">
<path d="M11.5 8.20728C12.6322 8.20728 13.5498 9.12491 13.5498 10.2571C13.5498 11.3893 12.6322 12.3069 11.5 12.3069C10.3678 12.3069 9.4502 11.3893 9.4502 10.2571C9.45021 9.12491 10.3678 8.20728 11.5 8.20728Z" fill="#61DAFB"/>
<path fill-rule="evenodd" clip-rule="evenodd" d="M14.998 0.185797C15.7906 -0.0705903 16.5827 -0.0871119 17.25 0.298102C17.9171 0.68338 18.2984 1.3773 18.4727 2.19166C18.6469 3.00635 18.6292 3.99813 18.4551 5.08521C18.3876 5.50602 18.2946 5.94543 18.1797 6.39966C18.6309 6.52735 19.0576 6.66747 19.4561 6.81959C20.4847 7.21233 21.3522 7.69294 21.9707 8.25123C22.589 8.80942 22.9999 9.48659 23 10.2571C22.9999 11.0276 22.589 11.7047 21.9707 12.2629C21.3522 12.8213 20.4847 13.3008 19.4561 13.6936C19.0576 13.8457 18.6309 13.9858 18.1797 14.1135C18.2947 14.5681 18.3876 15.0079 18.4551 15.429C18.6292 16.5161 18.6469 17.5078 18.4727 18.3225C18.2984 19.1369 17.9171 19.8308 17.25 20.2161C16.5826 20.6013 15.7906 20.5848 14.998 20.3284C14.2053 20.0719 13.3564 19.5599 12.502 18.8655C12.171 18.5965 11.8363 18.2969 11.5 17.97C11.164 18.2968 10.8299 18.5966 10.499 18.8655C9.64469 19.5598 8.7946 20.0709 8.00195 20.3274C7.20935 20.5838 6.41734 20.6013 5.75 20.2161C5.08269 19.8307 4.70159 19.1362 4.52734 18.3215C4.35316 17.5068 4.37174 16.516 4.5459 15.429C4.61337 15.0079 4.70439 14.5681 4.81934 14.1135C4.36849 13.9859 3.94212 13.8456 3.54395 13.6936C2.5153 13.3008 1.64778 12.8213 1.0293 12.2629C0.410974 11.7047 6.9489e-05 11.0276 0 10.2571C7.6972e-05 9.48659 0.411028 8.80942 1.0293 8.25123C1.64779 7.69294 2.51532 7.21233 3.54395 6.81959C3.94213 6.66757 4.36846 6.52728 4.81934 6.39966C4.7045 5.94544 4.61333 5.50599 4.5459 5.08521C4.37174 3.99816 4.35316 3.00734 4.52734 2.19263C4.70159 1.37798 5.08269 0.683453 5.75 0.298102C6.41733 -0.087162 7.20935 -0.0695849 8.00195 0.186774C8.79461 0.443289 9.64469 0.954335 10.499 1.64869C10.8297 1.91748 11.1641 2.21662 11.5 2.54322C11.8361 2.21651 12.1711 1.91758 12.502 1.64869C13.3564 0.954244 14.2053 0.442258 14.998 0.185797ZM17.21 14.3586C16.2638 14.5729 15.2327 14.7344 14.1426 14.8352C13.5103 15.7289 12.8548 16.5409 12.1963 17.2532C12.512 17.5602 12.8244 17.8402 13.1318 18.0901C13.9309 18.7395 14.6715 19.172 15.3057 19.3772C15.9398 19.5823 16.413 19.5453 16.75 19.3508C17.0869 19.1564 17.3547 18.7649 17.4941 18.1135C17.6336 17.4617 17.6297 16.6039 17.4668 15.5872C17.4041 15.1961 17.318 14.7855 17.21 14.3586ZM5.78906 14.3586C5.6811 14.7854 5.59489 15.1961 5.53223 15.5872C5.3694 16.6036 5.36556 17.4608 5.50488 18.1126C5.64428 18.7642 5.91312 19.1553 6.25 19.3499C6.58689 19.5444 7.05943 19.5812 7.69336 19.3762C8.32745 19.1711 9.06828 18.7394 9.86719 18.0901C10.1745 17.8403 10.4871 17.56 10.8027 17.2532C10.1442 16.541 9.48883 15.7288 8.85645 14.8352C7.76629 14.7343 6.73521 14.5729 5.78906 14.3586ZM10.1602 14.926C10.6023 15.5096 11.0514 16.0475 11.499 16.5344C11.9468 16.0473 12.3966 15.5098 12.8389 14.926C12.3994 14.9461 11.9526 14.9573 11.5 14.9573C11.047 14.9573 10.5999 14.9461 10.1602 14.926ZM11.5 6.55689C10.7827 6.55689 10.083 6.5834 9.40723 6.63404C9.0258 7.19357 8.65326 7.78584 8.29492 8.4065C7.93646 9.02737 7.61034 9.6468 7.31641 10.2571C7.61034 10.8674 7.93646 11.4868 8.29492 12.1077C8.65312 12.7281 9.02596 13.3198 9.40723 13.8792C10.0831 13.9298 10.7827 13.9573 11.5 13.9573C12.2166 13.9573 12.9156 13.9297 13.5908 13.8792C13.9723 13.3195 14.3457 12.7275 14.7041 12.1067C15.0624 11.4862 15.3878 10.8671 15.6816 10.2571C15.3878 9.64712 15.0624 9.02802 14.7041 8.40748C14.3455 7.78645 13.9725 7.19386 13.5908 6.63404C12.9156 6.5835 12.2166 6.55689 11.5 6.55689ZM16.2119 11.4309C16.0095 11.8216 15.7967 12.2146 15.5703 12.6067C15.344 12.9986 15.1101 13.3797 14.873 13.7503C15.5995 13.6591 16.29 13.5399 16.9355 13.3958C16.7375 12.7643 16.4964 12.106 16.2119 11.4309ZM6.78711 11.4319C6.50276 12.1067 6.26045 12.7645 6.0625 13.3958C6.70832 13.54 7.39918 13.6591 8.12598 13.7503C7.8891 13.38 7.6558 12.9993 7.42969 12.6077C7.20334 12.2156 6.98952 11.8226 6.78711 11.4319ZM5.0918 7.36158C4.66841 7.48142 4.27023 7.61296 3.90039 7.75416C2.93853 8.12141 2.19398 8.54682 1.69922 8.99341C1.20467 9.43993 1.00008 9.86808 1 10.2571C1.00007 10.6461 1.2046 11.0742 1.69922 11.5208C2.19397 11.9674 2.9385 12.3927 3.90039 12.76C4.27014 12.9012 4.66852 13.0318 5.0918 13.1516C5.37926 12.2253 5.75433 11.2514 6.21191 10.2571C5.75418 9.26242 5.37929 8.28819 5.0918 7.36158ZM17.9082 7.36158C17.6205 8.28836 17.2442 9.26222 16.7861 10.2571C17.244 11.2515 17.6196 12.2252 17.9072 13.1516C18.3308 13.0317 18.7296 12.9013 19.0996 12.76C20.0615 12.3927 20.806 11.9674 21.3008 11.5208C21.7954 11.0742 21.9999 10.6461 22 10.2571C21.9999 9.86808 21.7953 9.43993 21.3008 8.99341C20.806 8.54682 20.0615 8.12141 19.0996 7.75416C18.7298 7.61296 18.3316 7.48142 17.9082 7.36158ZM14.873 6.76295C15.1102 7.13372 15.3439 7.5153 15.5703 7.90748C15.7965 8.29927 16.0096 8.69186 16.2119 9.08228C16.4964 8.40721 16.7375 7.74893 16.9355 7.11744C16.29 6.9733 15.5995 6.85406 14.873 6.76295ZM8.12598 6.76295C7.39923 6.85413 6.70829 6.97318 6.0625 7.11744C6.26042 7.74874 6.50278 8.40643 6.78711 9.08131C6.9894 8.6909 7.2035 8.29827 7.42969 7.9065C7.65594 7.51463 7.88895 7.13342 8.12598 6.76295ZM16.75 1.16334C16.413 0.968888 15.9397 0.931853 15.3057 1.13697C14.6715 1.34213 13.9309 1.77467 13.1318 2.42408C12.8246 2.67381 12.5118 2.95321 12.1963 3.26002C12.8548 3.97229 13.5103 4.78432 14.1426 5.67798C15.2326 5.77868 16.2639 5.93953 17.21 6.15357C17.3177 5.72738 17.4042 5.31756 17.4668 4.92701C17.6297 3.91031 17.6336 3.05244 17.4941 2.40064C17.3547 1.7493 17.0868 1.35781 16.75 1.16334ZM7.69336 1.13795C7.05943 0.932992 6.58688 0.969813 6.25 1.16431C5.91311 1.35891 5.64429 1.74992 5.50488 2.40162C5.36555 3.05332 5.3694 3.91059 5.53223 4.92701C5.59478 5.3174 5.68037 5.72756 5.78809 6.15357C6.73442 5.93939 7.76604 5.77875 8.85645 5.67798C9.48884 4.78444 10.1442 3.9722 10.8027 3.26002C10.4873 2.95334 10.1743 2.67372 9.86719 2.42408C9.06829 1.77483 8.32744 1.34308 7.69336 1.13795ZM11.499 3.97877C11.0513 4.46588 10.6024 5.00441 10.1602 5.58814C10.5999 5.56811 11.047 5.55689 11.5 5.55689C11.9526 5.55689 12.3994 5.56814 12.8389 5.58814C12.3964 5.00421 11.947 4.466 11.499 3.97877Z" fill="#61DAFB"/>
</svg>
